<?xml version="1.0" standalone="no"?>
<!DOCTYPE svg PUBLIC "-//W3C//DTD SVG 1.1//EN" "http://www.w3.org/Graphics/SVG/1.1/DTD/svg11.dtd">
<svg xmlns="http://www.w3.org/2000/svg">
<metadata>Generated by Fontastic.me</metadata>
<defs>
<font id="proxicons" horiz-adv-x="512">
<font-face font-family="proxicons" units-per-em="512" ascent="480" descent="-32"/>
<missing-glyph horiz-adv-x="512" />

<glyph unicode="&#97;" d="M384 448l128-128-256-256-256 256 128 128 128-128z"/>
<glyph unicode="&#98;" d="M448 384l-128 128-256-256 256-256 128 128-128 128z"/>
<glyph unicode="&#99;" d="M64 384l128 128 256-256-256-256-128 128 128 128z"/>
<glyph unicode="&#100;" d="M384 64l128 128-256 256-256-256 128-128 128 128z"/>
<glyph unicode="&#101;" d="M31 512l0-35-31 0 0-56 512 0 0 56-31 0 0 35-55 0 0-35-340 0 0 35z m-31-125l0-387 512 0 0 387z m44-82l34 0 0-30-34 0z m78 0l34 0 0-30-34 0z m78 0l34 0 0-30-34 0z m78 0l34 0 0-30-34 0z m78 0l34 0 0-30-34 0z m78 0l34 0 0-30-34 0z m-390-58l34 0 0-30-34 0z m78 0l34 0 0-30-34 0z m78 0l34 0 0-30-34 0z m78 0l34 0 0-30-34 0z m78 0l34 0 0-30-34 0z m78 0l34 0 0-30-34 0z m-390-59l34 0 0-29-34 0z m78 0l34 0 0-29-34 0z m78 0l34 0 0-29-34 0z m78 0l34 0 0-29-34 0z m78 0l34 0 0-29-34 0z m78 0l34 0 0-29-34 0z m-390-58l34 0 0-30-34 0z m78 0l34 0 0-30-34 0z m78 0l34 0 0-30-34 0z m78 0l34 0 0-30-34 0z m78 0l34 0 0-30-34 0z m78 0l34 0 0-30-34 0z m-390-58l34 0 0-30-34 0z m78 0l34 0 0-30-34 0z m78 0l34 0 0-30-34 0z m78 0l34 0 0-30-34 0z m78 0l34 0 0-30-34 0z m78 0l34 0 0-30-34 0z"/>
<glyph unicode="&#102;" d="M219 512l0-184-91 0 128-255 128 255-91 0 0 184z m37-439l-183 0 0 74-73 0 0-147 512 0 0 147-73 0 0-74z"/>
<glyph unicode="&#103;" d="M447 397c-1 18-30 15-36 1-11-19-13-43-26-62-7-18-25-31-44-32-36 0-70-16-105-8-20 5-41 9-61 6-19-6-30 14-43 23-13 7-26 20-33 30-3-14-2-29-18-34-7-10-9-23-16-33 5-21 26-25 44-30 19-5 33-20 38-39 8-12 15-29 4-41-14-11-20-28-20-45-7-12-12-34 9-23 8 13 2 31 15 41 9 9 26 14 27 29 3-20 10-40 4-59-9-6-16-21 1-18 19 0 13 25 20 37 6 16 1 33 6 49 13 8 32-3 48-1 10-3 29 7 34 1 1-15 17-25 20-41-3-13-13-26-24-34 3-15 32-3 29 12 10 11 22 25 11 39-1 8 0 16-1 24 15-9 22-27 42-28 13-9 12-32 1-43-13-17 24-9 20 6 0 16 9 35-3 49-11 16-29 31-25 52 1 16 2 31 1 46 8 24 30 41 36 65 7 18 13 37 21 54 6 9 21-4 24 7z"/>
<glyph unicode="&#104;" d="M65 397c1 18 30 15 36 1 11-19 13-43 26-62 7-18 25-31 44-32 36 0 70-16 105-8 20 5 41 9 61 6 19-6 30 14 43 23 13 7 26 20 33 30 3-14 2-29 18-34 7-10 9-23 16-33-5-21-26-25-44-30-19-5-33-20-38-39-8-12-14-29-4-41 14-11 20-28 20-45 7-12 12-34-9-23-8 13-2 31-15 41-9 9-26 14-27 29-3-20-10-40-4-59 9-6 16-21-1-18-19 0-13 25-20 37-6 16-1 33-6 49-13 8-32-3-48-1-10-3-29 7-34 1-1-15-17-25-20-41 3-13 13-26 24-34-3-15-32-3-29 12-10 11-22 25-11 39 1 8 0 16 1 24-15-9-22-27-42-28-13-9-12-32-1-43 13-17-24-9-20 6 0 16-9 35 3 49 11 16 29 31 25 52-1 16-2 31-1 46-8 24-30 41-36 65-7 18-13 37-21 54-6 9-21-4-24 7z"/>
<glyph unicode="&#105;" d="M449 220c-14 19-17 40-11 62 4 21 4 42 4 64 9-23 1-48 5-71 2-18 7-37 2-55z m-21-78c-1 8 5 40 5 19 0-7-1-14-5-19z m31 82c-3 38-7 76-8 113 2 20-15 36-34 35-19 1-38 1-55-5-26-5-52-2-78-4-30-2-61-2-90 7-13 1-33-12-41-6 21 11-10 21-19 13-1 9 7 25-5 33 5-13-7-28-17-14-12 1-39-9-35 14-10-9-2-22 7-26-3-21-31 16-35-8 6-13 21-15 29-15 18-12-10-36 10-45 21-3 22-25 33-39 9-14 13-32 26-44 7-15 19-29 35-31 4-21 18-41 13-63 0-13-34-34-7-36 14-3 10 17 16 21-5-10 2-24 12-13 6 14 9 26 4 42 1 19 0 37-1 56-5 26 29 10 42 11 20-2 40-8 60-6 16 19 25-13 44-10 11 5 5-23 14-7 1 14 10 7 7-4 9-5 4 18 15 16 9 4 13-22 14-31-1-18 1-38-8-54-15-7-15-26 5-18 6 2 11 26 15 18-12-11 3-25 12-11 2 12 12 21 8 36-1 16 2 32 4 48 0-6 5-16 4-5 0-7 6-19 5-5 0 12 2-9 3 5 1 11-2 22-4 32z"/>
<glyph unicode="&#106;" d="M63 220c14 19 17 40 11 62-4 21-4 42-4 64-9-23-1-48-5-71-2-18-7-37-2-55z m21-78c1 8-5 40-5 19 0-7 1-14 5-19z m-31 82c3 38 7 76 8 113-2 20 15 36 34 35 19 1 38 1 55-5 26-5 52-2 78-4 30-2 61-2 90 7 13 1 33-12 41-6-21 11 10 21 19 13 1 9-7 25 5 33-5-13 7-28 17-14 12 1 39-9 35 14 10-9 2-22-7-26 3-21 31 16 35-8-6-13-21-15-29-15-18-12 10-36-10-45-21-3-22-25-33-39-9-14-13-32-26-44-7-15-19-29-35-31-4-21-18-41-13-63 0-13 34-34 7-36-14-3-10 17-16 21 5-10-2-24-12-13-6 14-9 26-4 42-1 19 0 37 1 56 5 26-29 10-42 11-20-2-40-8-60-6-16 19-25-13-44-10-11 5-5-23-14-7-1 14-10 7-7-4-9-5-4 18-15 16-9 4-13-22-14-31 1-18-1-38 8-54 15-7 15-26-5-18-6 2-11 26-15 18 12-11-3-25-12-11-2 12-12 21-8 36 1 16-2 32-4 48 0-6-5-16-4-5 0-7-6-19-5-5 0 12-2-9-3 5-1 11 2 22 4 32z"/>
<glyph unicode="&#107;" d="M459 233c-22 13-35 36-50 55-25 20-55 38-88 40-37 5-75-7-111 3-20 8-45 4-61 19-16 11-27 25-34 43 0 10-8 27-13 8 1-16-12-17-17-2-4 9-10 13-8 0 7-21-15-27-21-44-7-9-37-18-14-28 8-5 23 2 12-9-7-30 30 10 36-10 13-13 27-27 27-47 2-17 12-33 26-44 15-17 6-43 9-64 3-19-8-31-20-43-1-14 27-5 30 5 17 10 15 32 22 48 5 17 5 46 14 55 29-3 59 5 85 18 10-9 29-4 34-22 13-17 36-22 50-38 7-15 6-43-15-46-17-7-5-22 10-17 20 2 22 29 29 44 2 15 12 25 22 9 10-13 11-39-7-47-17-20 28-23 28-5 7 23 6 47 8 70-16 12-38 18-44 40-6 9-11 37 6 20 21-16 46-34 74-28 5 7-15 14-19 17z"/>
<glyph unicode="&#108;" d="M53 233c22 13 35 36 50 55 25 20 55 38 88 40 37 5 75-7 111 3 20 8 45 4 61 19 16 11 27 25 34 43 0 10 8 27 13 8-1-16 12-17 17-2 4 9 10 13 8 0-7-21 15-27 21-44 7-9 37-18 14-28-8-5-23 2-12-9 7-30-30 10-36-10-13-13-27-27-27-47-2-17-12-33-26-44-15-17-6-43-9-64-3-19 8-31 20-43 1-14-27-5-30 5-17 10-15 32-22 48-5 17-5 46-14 55-29-3-59 5-85 18-10-9-29-4-34-22-13-17-36-22-50-38-7-15-6-43 15-46 17-7 5-22-10-17-20 2-22 29-29 44-2 15-12 25-22 9-10-13-11-39 7-47 17-20-28-23-28-5-7 23-6 47-8 70 16 12 38 18 44 40 6 9 11 37-6 20-21-16-46-34-74-28-5 7 15 14 19 17z"/>
<glyph unicode="&#109;" d="M79 310c11 10 16 25 26 36 17 13-11 31-11 48-4 12 3 22 13 10 8-4 17-32 16-11 1 9 6 20 11 7 13-14 3-39 23-43 12-11 27-17 39-28 7-9 18-20 33-16 40 2 78 12 117 18 17-3 32-6 49-10 25-7 48-32 44-59-6-17-18-30-27-46-13 8-4 32 11 36 14 17 2 41-13 52-9 7-39 17-23-1 11-18 15-41 8-61-5-16-13-32-5-48-2-18 2-35 7-52 3-14-5-38-20-38-23-1 9 18 1 30-2 18 1 38-10 53-14 13-35 18-47 34-9 11-25-6-38-4-23-4-45-3-68-4-11-12-4-32-5-48-1-18 10-36 1-52 3-14-23-12-22-6 13 13 0 32 2 49-2 21-4 42-10 63-8 14-25 21-31 37-9 11-10 30-23 35-17-2-33-22-51-8-7 7-3 20 3 27z"/>
<glyph unicode="&#110;" d="M433 310c-11 10-16 25-26 36-17 13 11 31 11 48 4 12-3 22-13 10-8-4-17-32-16-11-1 9-6 20-11 7-13-14-3-39-23-43-12-11-27-17-39-28-7-9-18-20-33-16-40 2-78 12-117 18-17-3-32-6-49-10-25-7-48-32-44-59 6-17 18-30 27-46 13 8 4 32-11 36-14 17-2 41 13 52 9 7 39 17 23-1-11-18-15-41-8-61 5-16 13-32 5-48 2-18-2-35-7-52-3-14 5-38 20-38 23-1-9 18-1 30 2 18-1 38 10 53 14 13 35 18 47 34 9 11 25-6 38-4 23-4 45-3 68-4 11-12 4-32 5-48 1-18-10-36-1-52-3-14 23-12 22-6-13 13 0 32-2 49 2 21 4 42 10 63 8 14 25 21 31 37 9 11 10 30 23 35 17-2 33-22 51-8 7 7 3 20-3 27z"/>
<glyph unicode="&#111;" d="M127 320c21-3 42-5 62-11 19-10 27-33 37-50 4-19-8-35-15-51-5-23-12-48-28-66-7-9-19-23-16-34 19 0 21 25 35 33 13 21 17 45 29 65 6 6 9 19 9 4 3-27 4-54-1-81-5-9-35-25-9-23 10 5 20 16 28 25 1 20-5 41 3 61 1 18 0 38 8 55 10 13 28-2 42-2 15-3 36-3 39-23-2-8 0-23 10-11 10 14 1-18 14-7 21 2 12-27 9-39-9-14-9-30-18-43-7-8-16-20 1-19 17-3 26 19 34 30 2 24 13 45 21 66-5 15-13 31-12 47-2 22 13 39 19 59 7 13-8 32-3 39 10 2 31 29 9 16-17-9-32 6-49 5-23 0-45-10-68-10-23-2-44 10-67 9-21 2-41-4-61-8-11 0-45-3-32 15 8 14-5 5-11 2-6-1-12-9-16-5-2 10 20 21 29 29-10 5-30-12-31-6 2 8 22 26 5 16-18-12-27-33-40-49-4-18-15-31-23-47-7-20 17-18 29-17 4-5 5-21 10-11 12 2-5 26 11 29 3 2 5 5 7 8z"/>
<glyph unicode="&#112;" d="M385 320c-21-3-42-5-62-11-19-10-27-33-37-50-4-19 8-35 15-51 5-23 12-48 28-66 7-9 19-23 16-34-19 0-21 25-35 33-13 21-17 45-29 65-6 6-9 19-9 4-3-27-4-54 1-81 5-9 35-25 9-23-10 5-20 16-28 25-1 20 5 41-3 61-1 18 0 38-8 55-10 13-28-2-42-2-15-3-36-3-39-23 2-8 0-23-9-11-11 14-2-18-15-7-21 2-12-27-9-39 9-14 9-30 18-43 7-8 16-20-1-19-17-3-26 19-34 30-2 24-13 45-21 66 5 15 13 31 12 47 2 22-13 39-19 59-7 13 8 32 3 39-10 2-31 29-9 16 17-9 32 6 49 5 23 0 45-10 68-10 23-2 44 10 67 9 21 2 41-4 61-8 11 0 45-3 32 15-8 14 5 5 12 2 5-1 11-9 15-5 2 10-20 21-29 29 10 5 30-12 31-6-2 8-22 26-5 16 18-12 27-33 40-49 4-18 15-31 23-47 7-20-17-18-29-17-4-5-5-21-10-11-12 2 5 26-11 29-3 2-5 5-7 8z"/>
<glyph unicode="&#113;" d="M436 209c-19 25-34 53-49 80 6-18-1-37-9-53 1-20 27-28 27-48-1-19 10-37 7-56-10-9 10-29-12-25-27-4 6 20-2 34-5 21-7 45-26 58-11 8-27 34-34 34-2-17 24-33 10-49-13-17-29-34-39-53 15-14-26-33-15-8 1 18 9 33 22 45 19 15 2 35-6 50-3 18-18 30-34 17-24-8-50-10-75-11 8-26 11-53 20-79 6-15-3-27-2-41-11-3-28-3-15 11 13 16 2 37-5 53-8 17-15 35-24 51-13-12-32-17-48-25-21-4-34-29-20-46 8-11 14-21 4-34-10 2-21 25-21 38 6 16-6 40 12 50 10 9 34 19 30 33-10 15-11 32-9 48-7 16-15 33-21 50-11 3-24-14-32-21 1-21-35-12-27 6 8 18 16 36 20 55 7 13 4 23 1 37 5-3 12-10 15-10-2 20 8-7 20 0 30-1 56-20 76-41 24-24 58-38 92-31 32 4 68 16 99-1 16-13 32-26 51-38 22-18 28-47 39-72 1-11 27-28 5-20-14 6 14-14-5-4-8 4-14 10-20 16z"/>
<glyph unicode="&#114;" d="M76 209c19 25 34 53 49 80-6-18 1-37 9-53-1-20-27-28-27-48 1-19-10-37-7-56 10-9-10-29 12-25 27-4-6 20 2 34 5 21 7 45 26 58 11 8 27 34 34 34 2-17-24-33-10-49 13-17 29-34 39-53-15-14 26-33 15-8-1 18-9 33-22 45-19 15-2 35 6 50 3 18 18 30 34 17 24-8 50-10 75-11-8-26-11-53-20-79-6-15 3-27 2-41 11-3 28-3 15 11-13 16-2 37 5 53 8 17 15 35 24 51 13-12 32-17 48-25 21-4 34-29 20-46-8-11-14-21-4-34 10 2 21 25 21 38-6 16 6 40-12 50-10 9-34 19-30 33 10 15 11 32 9 48 7 16 15 33 21 50 11 3 24-14 32-21-1-21 35-12 27 6-8 18-16 36-20 55-7 13-4 23-1 37-5-3-12-10-15-10 2 20-8-7-20 0-30-1-56-20-76-41-24-24-58-38-92-31-32 4-68 16-99-1-16-13-32-26-51-38-22-18-28-47-39-72-1-11-27-28-5-20 14 6-14-14 5-4 8 4 14 10 20 16z"/>
<glyph unicode="&#115;" d="M35 168c-6 17-14 37 2 51 17 18 19 44 29 67 14 29 37 52 62 73 28 23 66 29 100 37 39 8 79 16 118 13 38-8 78-18 106-47 14-10 7-36 21-43 14 1 15-31 3-22 6 13-13 23-10 5 5-19-7-35-14-51-8-16-11-34-9-51-3-21-10-40-11-62 5-17-14-40-28-22 10 19 5 39-2 58-2 8-2 21-7 7-10-18-21-35-29-54-11-17-43-3-19 12 15 13 17 33 14 51-3 14-2 35-21 23-24-6-49-3-73 2-22 3-44-3-61-15 0-25 2-49-7-73-3-13-21-8-25-22-20-11-17 14-7 23 4 18 1 37 2 56-7 4-26-18-34-27-16-17-37-33-61-27-15 1-36 12-18 27 14 13-1 40-13 17-3-2-5-5-8-6z"/>
<glyph unicode="&#116;" d="M477 168c6 17 14 37-2 51-17 18-19 44-29 67-14 29-37 52-62 73-28 23-66 29-100 37-39 8-79 16-118 13-38-8-78-18-106-47-14-10-7-36-21-43-14 1-15-31-3-22-6 13 13 23 10 5-5-19 7-35 14-51 8-16 11-34 9-51 3-21 10-40 11-62-5-17 14-40 28-22-10 19-5 39 2 58 2 8 2 21 7 7 10-18 21-35 29-54 11-17 43-3 19 12-15 13-17 33-14 51 3 14 2 35 21 23 24-6 49-3 73 2 22 3 44-3 61-15 0-25-2-49 7-73 3-13 21-8 25-22 20-11 17 14 7 23-4 18-1 37-2 56 7 4 26-18 34-27 16-17 37-33 61-27 15 1 36 12 18 27-14 13 1 40 13 17 3-2 5-5 8-6z"/>
<glyph unicode="&#117;" d="M165 272c-13 4-28-4-41 2-14 8-10 27-2 38 13 20 30 39 55 43 11 1 21-2 28 10 23 21 49 42 81 45-19-27-40-54-68-71-20-3 0-27 13-27 33-3 71-5 98-28 21-21 29-51 34-79 3-16 5-32 4-49 13-2 31-8 30-24-2-20-27-37-45-24-33-4-66-8-100-4-19 6 9 22 15 21-10 7-29 33-36 10-6-10-9-27-25-27-8-4-37-1-18 10 15 3 18 21 24 33 5 17-13 25-21 37-14 17-11 41-16 61-3 8-3 18-10 23z"/>
<glyph unicode="&#118;" d="M347 272c14 4 28-4 41 2 14 8 10 27 2 38-13 20-30 39-55 43-11 1-21-2-28 10-22 21-49 42-81 45 19-27 40-54 68-71 20-3 0-27-13-27-33-3-71-5-98-28-21-21-29-51-34-79-3-16-5-32-4-49-13-2-31-8-30-24 2-20 27-37 45-24 33-4 66-8 100-4 19 6-9 22-15 21 10 7 29 33 36 10 6-10 9-27 25-27 8-4 37-1 18 10-15 3-18 21-24 33-5 17 13 25 21 37 14 17 11 41 16 61 3 8 3 18 10 23z"/>
<glyph unicode="&#119;" d="M244 120c2 7-1 32-7 14-4-9-22-25-4-29-15-1-29 4-44 0-6-1 12 5 17 6 13 4 21 27 7 34-22 18-46 32-67 51-19 19-19 49-17 74 3 16-2 34 9 47 3 8-10 14-16 8-2 9 13 14 1 18-14 9-4 22 2 30-3 6-4 14 4 7 15-17 5 32 16 10 2-10 11-9 9 2-1 6 0 28 7 12 4-6 5-34 12-16 1 7 12 22 10 6-5-14 5-19 17-12 12 7 17-2 11-13 2-16-31-17-11-28 11-9 20-20 20-35 8-15 13-31 24-43 11-10 34 2 23 15-10 13-14 30-7 45 12 26 35 48 60 62 24 11 53 7 76-4-10-1-25 1-32-4 11-6 19-24 16-32-9 11-6-1-8-8 8-1 29-17 11-14-12 4-22-4-26-12 10-11 22-23 23-38-8 3-17 4-8-5 4-6 14-26 8-26-12 7-27 14-41 11 5-8 29-13 9-20-8-2-14-1-3-7 8-3 9-4-1-5-10 2-14-1-15-12-4-17-9 8-14 4 0-8-1-17-7-14-11-14-23-27-38-35-13-6-17-21-17-34-6-15 21-24 21-27-18 4-36 2-53-1 7 7 21 7 23 18z"/>
<glyph unicode="&#120;" d="M268 120c-2 7 1 32 7 14 4-9 22-25 4-29 15-1 29 4 44 0 6-1-12 5-17 6-13 4-21 27-7 34 22 18 46 32 67 51 19 19 19 49 17 74-3 16 2 34-9 47-3 8 10 14 16 8 2 9-13 14-1 18 14 9 4 22-2 30 3 6 4 14-4 7-15-17-5 32-16 10-2-10-11-9-9 2 2 6 0 28-7 12-4-6-5-34-12-16-1 7-12 22-10 6 5-14-5-19-17-12-12 7-17-2-11-13-2-16 31-17 11-28-11-9-20-20-20-35-8-15-13-31-24-43-11-10-34 2-23 15 10 13 14 30 7 45-12 26-35 48-60 62-24 11-53 7-76-4 10-1 25 1 32-4-11-6-19-24-16-32 9 11 6-1 8-8-8-1-29-17-11-14 12 4 22-4 26-12-10-11-22-23-23-38 8 3 17 4 8-5-4-6-14-26-8-26 12 7 27 14 41 11-5-8-29-13-9-20 8-2 14-1 3-7-8-3-9-4 1-5 10 2 14-1 15-12 4-17 9 8 14 4 0-8 1-17 7-14 11-14 23-27 38-35 13-6 17-21 17-34 6-15-21-24-21-27 18 4 36 2 53-1-7 7-21 7-23 18z"/>
<glyph unicode="&#121;" d="M0 512l0-147 73 0 0 74 366 0 0-366-366 0 0 74-73 0 0-147 512 0 0 512z m439-256l-255 128 0-91-184 0 0-74 184 0 0-91z"/>
<glyph unicode="&#122;" d="M256 512c-126 0-228-102-228-228l-28 0 0-284 512 0 0 284-28 0c0 126-102 228-228 228z m0-65c90 0 163-73 163-163l-326 0c0 90 73 163 163 163z m-43-234l86 0 0-47-18-14 18-81-86 0 18 81-18 14z"/>
<glyph unicode="&#65;" d="M61 512l0-61-61 0 0-127 61 0 0-61 127 0 0 61 61 0 0 127-61 0 0 61z m202 0l0-133c-3-2-4-5-3-8 0-1 1-3 3-3l0-105 249 0 0 6-243 0 0 98c2 1 3 3 4 5l49 17c1-1 2-2 4-2 1 0 3 0 4 1l50-27c0-4 2-7 6-7 3-1 6 1 7 4l49 10c2-1 4-2 6-2 4 1 6 5 6 8-1 4-5 6-8 5-3 0-4-2-5-4l-49-10c-1 1-3 2-4 2-2 1-3 0-5-1l-50 28c0 3-3 6-6 6-3 1-6-2-7-5l-50-17c0 1 0 1-1 1l0 133z m-138-20c10 0 19-8 20-18 6-3 12-6 17-11l13-4-5-18-18 6 3 10c-3 3-7 6-12 7-3-7-10-13-18-13-7 0-13 4-17 9-5-4-9-11-9-19 0-13 9-23 21-25l0 28 9 0 0-29c14-2 25-14 25-28 0-15-11-27-25-29l0-30c3-1 6-2 9-4l57 99 8-4-58-102c2-4 4-8 4-13 0-3-2-5-5-5-2 0-4 2-4 5 0 1-1 3-1 4l-10-18-4-7-4 7-75 129 8 4 47-80c0 12 8 21 19 23l0 41c-17 2-30 16-30 34 0 12 6 22 15 28 0 1 0 2 0 3 0 11 9 20 20 20z m181-32l0-64 10 3c2 4 7 7 11 6 5 0 9-3 10-8l10-5 0 68z m60-41l0-37 18-10c1 0 3 1 4 0 2 0 4-1 5-1l15 2 0 46z m-237-13l0-39c9 2 15 10 15 20 0 9-6 17-15 19z m297-15l0-14 12 3c2 2 4 4 7 4 6 2 12-2 14-9 1-6-3-12-10-14-3 0-5 1-8 2l-15-3 0-86 42 0 0 117z m-105-8l-15-5 0-104 41 0 0 99-17 9c-2 0-3 0-5 0-1 0-2 1-4 1z m45-21l0-88 42 0 0 82-12-2c-2-4-6-6-11-5-5 1-8 4-9 8z m-246-5c-6-2-10-8-10-14 0-7 4-12 10-14z m-7-35l12-21 8 15c-1 1-2 2-4 2l0-6-9 0 0 7c-2 1-5 2-7 3z m12-73c-69 0-125-55-125-124 0-69 56-125 125-125 69 0 124 56 124 125 0 69-55 124-124 124z m138 0l0-249 249 0 0 249z m-138-8c64 0 116-52 116-116 0-65-52-117-116-117-65 0-117 52-117 117 0 64 52 116 117 116z m0-3c-63 0-113-51-113-113 0-63 50-113 113-113 62 0 113 50 113 113 0 62-51 113-113 113z m3-9c6 0 12-1 19-2l-4-14c-1-2 0-3 1-4 1-1 2-2 4-1 1 0 2 1 3 3l4 14c6-2 12-4 17-7l-7-13c-1-2-1-4 1-5 2-1 5-1 6 1l7 13c6-3 11-7 16-11l-11-11c-2-1-2-4 0-6 2-1 4-1 6 0l10 11c5-4 9-9 12-15l-13-7c-2-1-3-4-1-6 1-2 3-3 5-2l14 8c3-5 5-11 7-17l-15-4c-2-1-3-3-3-5 1-3 3-4 5-3l15 4c2-8 3-17 3-25l-73 0c0 9-5 18-12 24l18 72-35-66c-1 1-2 1-2 1-17 0-31-14-31-31l-74 0c0 8 1 15 3 23l15-4c1-1 3 0 4 1 1 1 1 2 1 4 0 1-2 2-3 3l-15 4c2 6 4 12 7 17l13-7c2-1 5-1 6 1 1 2 0 5-2 6l-13 8c4 5 7 10 12 15l10-11c1-1 3-2 4-1 2 0 3 1 4 3 0 1-1 3-2 4l-11 10c5 5 10 9 15 12l8-13c1-2 3-2 5-1 2 1 3 3 2 5l-7 13c5 3 11 6 17 8l4-15c0-1 1-2 3-3 1 0 3 0 4 1 1 1 1 3 1 4l-4 15c6 1 12 2 19 2l0-14c0-2 0-3 2-4 1-1 3-1 4 0 1 1 2 2 2 4l0 14z m149-59l6 0 26-26 26 26 7 0 0-91-13 0 0 65-20-19-19 19 0-65-13 0z m104 0l13 0 26-26 0-65-13 0 0 26-39 0 0-26-13 0 0 65z m52 0l39 0c6 0 12-3 17-8 6-5 9-11 9-18 0-7-4-14-10-19 6-6 10-12 10-20 0-6-3-12-9-18-5-5-11-8-17-8l-39 0z m-46-13l-19-19 0-20 39 0 0 20z m59 0l0-26 26 0c3 0 6 2 9 4 2 3 4 6 4 9 0 3-2 6-4 9-3 3-6 4-9 4z m-321-10c12 0 22-10 22-22 0-13-10-23-22-23-13 0-23 10-23 23 0 12 10 22 23 22z m321-29l0-26 26 0c3 0 6 2 9 4 2 3 4 6 4 9 0 4-2 7-4 9-3 3-6 4-9 4z"/>
<glyph unicode="&#66;" d="M512 171l0 170-512 0 0-170z"/>
<glyph unicode="&#68;" d="M213 512l0-256 86 0 0 256z m-29-10c-107-32-184-130-184-246 0-141 115-256 256-256 141 0 256 115 256 256 0 116-77 214-184 246l0-78c65-28 111-93 111-168 0-101-82-183-183-183-101 0-183 82-183 183 0 75 46 140 111 168z"/>
<glyph unicode="&#69;" d="M410 461l-205-205-103 102-102-102 205-205 102 103 205 204z"/>
<glyph unicode="&#70;" d="M0 512l0-512 512 0 0 147-73 0 0-74-366 0 0 146 184 0 0-91 255 128-255 128 0-91-184 0 0 146 366 0 0-74 73 0 0 147z"/>
<glyph unicode="&#71;" d="M418 512l-49-49 94-94 49 50z m-70-70l-280-281 93-93 281 280z m-301-302l-47-140 140 47z"/>
<glyph unicode="&#72;" d="M171 0l170 0 0 171 171 0 0 170-171 0 0 171-170 0 0-171-171 0 0-170 171 0z"/>
<glyph unicode="&#73;" d="M128 512l-128-128 128-128-128-128 128-128 128 128 128-128 128 128-128 128 128 128-128 128-128-128z"/>
<glyph unicode="&#74;" d="M256 512c-141 0-256-115-256-256 0-141 115-256 256-256 141 0 256 115 256 256 0 141-115 256-256 256z m-163-202l326 0 0-108-326 0z"/>
<glyph unicode="&#75;" d="M256 512c-141 0-256-115-256-256 0-141 115-256 256-256 141 0 256 115 256 256 0 141-115 256-256 256z m115-102l77-77-154-154-76-77-154 154 77 77 77-77z"/>
<glyph unicode="&#76;" d="M256 512c-141 0-256-115-256-256 0-141 115-256 256-256 141 0 256 115 256 256 0 141-115 256-256 256z m-54-93l108 0 0-109 109 0 0-108-109 0 0-109-108 0 0 109-109 0 0 108 109 0z"/>
<glyph unicode="&#77;" d="M256 512c-141 0-256-115-256-256 0-141 115-256 256-256 141 0 256 115 256 256 0 141-115 256-256 256z m-9-57c22 0 44-3 65-10 41-13 76-49 79-94 4-35-9-67-36-85-26-20-61-30-85-51-13-13-12-30-13-46l-21 0c-2 22-2 46 13 66 19 28 39 56 38 98 1 32-3 69-31 89-20 11-49 10-65-7-3-4-5-9-5-14 3-19 26-30 26-51 3-25-16-50-41-50-27-2-50 22-50 48-4 34 17 67 46 84 24 15 52 22 80 23z m0-305c14 1 29-5 38-17 19-21 11-58-14-70-24-14-60-1-67 27-4 17 0 35 12 47 8 8 19 13 31 13z"/>
<glyph unicode="&#78;" d="M256 512c-141 0-256-115-256-256 0-141 115-256 256-256 141 0 256 115 256 256 0 141-115 256-256 256z m-77-102l77-77 77 77 77-77-77-77 77-77-77-77-77 77-77-77-77 77 77 77-77 77z"/>
<glyph unicode="&#79;" d="M256 512c-141 0-256-115-256-256 0-141 115-256 256-256 141 0 256 115 256 256 0 141-115 256-256 256z m-10-58c25 1 50-8 61-26 8-11 10-25 10-37 1-29-18-55-25-83-17-45-25-92-32-139l-23 0c-9 66-26 131-52 194-9 26-9 60 20 80 12 7 26 11 41 11z m4-305c28 0 52-30 44-58-6-28-42-42-66-29-27 13-32 53-10 73 8 9 20 14 32 14z"/>
<glyph unicode="&#80;" d="M256 512l-128-255 91 0 0-184-146 0 0 74-73 0 0-147 512 0 0 147-73 0 0-74-146 0 0 184 91 0z"/>
<glyph unicode="&#81;" d="M256 512c-68 0-124-68-124-151 0-84 56-152 124-152 68 0 124 68 124 152 0 83-56 151-124 151z m-49-328c0 0-138-20-180-66-28-29-27-118-27-118l512 0c0 0 1 89-27 118-44 47-188 66-188 66z"/>
<glyph unicode="&#67;" d="M251 512c-97-1-191-63-229-152-44-95-21-215 55-287 70-70 182-93 274-55 96 37 163 137 161 240 0 101-64 197-157 234-33 14-69 21-104 20z m21-22c30-2 59-10 86-24l-24-42 28-16 24 42c25-17 47-38 64-63l-43-24 17-29 42 25c7-15 13-30 17-45 5-19 7-39 7-58l-205 0 8 123-9 3-63-126-199 0c0 36 8 71 24 103l42-25 17 29-43 24c17 25 38 47 63 63l25-42 28 16-24 42c26 13 56 21 86 23l0-48 32 0z"/>
</font>
</defs>
</svg>
